# xmcd CD database file
#
# Track frame offsets:
#	150
#	15389
#	36573
#	60595
#
# Disc length: 981 seconds
#
# Revision: 0
# Processed by: cddbd v1.5.1PL0 Copyright (c) Steve Scherf et al.
# Submitted via: CDex 1.51
#
DISCID=2b03d304
DTITLE=マーガレットズロース - 藪こぎvol.3(寿町フリーコンサート音源集)
DYEAR=2003
DGENRE=Rock
TTITLE0=パンツの歌
TTITLE1=君をください
TTITLE2=放浪癖
TTITLE3=風鈴と西瓜
EXTD=YEAR: 2003.08/14
EXTT0=
EXTT1=
EXTT2=
EXTT3=
PLAYORDER=
